<svg height="512" viewBox="0 0 64 64" width="512" xmlns="http://www.w3.org/2000/svg"><path d="m33 47h-2v1a2 2 0 0 0 -2 2v2a2 2 0 0 0 2 2h2v2h-4v2h2v1h2v-1a2 2 0 0 0 2-2v-2a2 2 0 0 0 -2-2h-2v-2h4v-2h-2z"/><path d="m32 44a9 9 0 1 0 9 9 9.01 9.01 0 0 0 -9-9zm0 16a7 7 0 1 1 7-7 7.009 7.009 0 0 1 -7 7z"/><path d="m31 17h2v-1a2 2 0 0 0 2-2v-2a2 2 0 0 0 -2-2h-2v-2h4v-2h-2v-1h-2v1a2 2 0 0 0 -2 2v2a2 2 0 0 0 2 2h2v2h-4v2h2z"/><path d="m32 20a9 9 0 1 0 -9-9 9.01 9.01 0 0 0 9 9zm0-16a7 7 0 1 1 -7 7 7.009 7.009 0 0 1 7-7z"/><path d="m54 35h-2v1a2 2 0 0 0 -2 2v2a2 2 0 0 0 2 2h2v2h-4v2h2v1h2v-1a2 2 0 0 0 2-2v-2a2 2 0 0 0 -2-2h-2v-2h4v-2h-2z"/><path d="m53 32a9 9 0 1 0 9 9 9.01 9.01 0 0 0 -9-9zm0 16a7 7 0 1 1 7-7 7.009 7.009 0 0 1 -7 7z"/><path d="m28 34h-3a1 1 0 0 0 -.65 1.759l7 6a1 1 0 0 0 1.3 0l7-6a1 1 0 0 0 -.65-1.759h-3v-7a1 1 0 0 0 -1-1h-6a1 1 0 0 0 -1 1zm1 2a1 1 0 0 0 1-1v-7h4v7a1 1 0 0 0 1 1h1.3l-4.3 3.683-4.3-3.683z"/><path d="m40 27h2v2h-2z"/><path d="m44 27h2v2h-2z"/><path d="m42 25h2v2h-2z"/><path d="m42 29h2v2h-2z"/><path d="m22 27h2v2h-2z"/><path d="m18 27h2v2h-2z"/><path d="m20 25h2v2h-2z"/><path d="m20 29h2v2h-2z"/><path d="m52.35 29.759a1 1 0 0 0 1.3 0l7-6a1 1 0 0 0 -.65-1.759h-3v-7a1 1 0 0 0 -1-1h-6a1 1 0 0 0 -1 1v7h-3a1 1 0 0 0 -.65 1.759zm-2.35-5.759a1 1 0 0 0 1-1v-7h4v7a1 1 0 0 0 1 1h1.3l-4.3 3.683-4.3-3.683z"/><path d="m10.35 29.759a1 1 0 0 0 1.3 0l7-6a1 1 0 0 0 -.65-1.759h-3v-7a1 1 0 0 0 -1-1h-6a1 1 0 0 0 -1 1v7h-3a1 1 0 0 0 -.65 1.759zm-2.35-5.759a1 1 0 0 0 1-1v-7h4v7a1 1 0 0 0 1 1h1.3l-4.3 3.683-4.3-3.683z"/><path d="m12 35h-2v1a2 2 0 0 0 -2 2v2a2 2 0 0 0 2 2h2v2h-4v2h2v1h2v-1a2 2 0 0 0 2-2v-2a2 2 0 0 0 -2-2h-2v-2h4v-2h-2z"/><path d="m11 32a9 9 0 1 0 9 9 9.01 9.01 0 0 0 -9-9zm0 16a7 7 0 1 1 7-7 7.009 7.009 0 0 1 -7 7z"/><path d="m7 10h8v2h-8z"/><path d="m28 22h8v2h-8z"/><path d="m49 10h8v2h-8z"/><path d="m7 6h8v2h-8z"/><path d="m49 6h8v2h-8z"/><path d="m7 2h8v2h-8z"/><path d="m49 2h8v2h-8z"/></svg>