<?xml version="1.0" encoding="UTF-8" standalone="no"?>
<svg
   xmlns:dc="http://purl.org/dc/elements/1.1/"
   xmlns:cc="http://creativecommons.org/ns#"
   xmlns:rdf="http://www.w3.org/1999/02/22-rdf-syntax-ns#"
   xmlns:svg="http://www.w3.org/2000/svg"
   xmlns="http://www.w3.org/2000/svg"
   xmlns:sodipodi="http://sodipodi.sourceforge.net/DTD/sodipodi-0.dtd"
   xmlns:inkscape="http://www.inkscape.org/namespaces/inkscape"
   height="512"
   viewBox="0 0 64 64"
   width="512"
   version="1.1"
   id="svg3863"
   sodipodi:docname="profit.svg"
   inkscape:version="0.92.3 (2405546, 2018-03-11)">
  <metadata
     id="metadata3869">
    <rdf:RDF>
      <cc:Work
         rdf:about="">
        <dc:format>image/svg+xml</dc:format>
        <dc:type
           rdf:resource="http://purl.org/dc/dcmitype/StillImage" />
        <dc:title></dc:title>
      </cc:Work>
    </rdf:RDF>
  </metadata>
  <defs
     id="defs3867" />
  <sodipodi:namedview
     pagecolor="#ffffff"
     bordercolor="#666666"
     borderopacity="1"
     objecttolerance="10"
     gridtolerance="10"
     guidetolerance="10"
     inkscape:pageopacity="0"
     inkscape:pageshadow="2"
     inkscape:window-width="960"
     inkscape:window-height="981"
     id="namedview3865"
     showgrid="false"
     showguides="true"
     inkscape:guide-bbox="true"
     inkscape:zoom="0.55104611"
     inkscape:cx="241.76998"
     inkscape:cy="184.99472"
     inkscape:window-x="2880"
     inkscape:window-y="30"
     inkscape:window-maximized="0"
     inkscape:current-layer="svg3863">
    <sodipodi:guide
       position="0.160401,62.035088"
       orientation="0,1"
       id="guide3871"
       inkscape:locked="false" />
  </sodipodi:namedview>
  <path
     d="m 31,59 h 2 v -1 a 2,2 0 0 0 2,-2 v -2 a 2,2 0 0 0 -2,-2 h -2 v -2 h 4 v -2 h -2 v -1 h -2 v 1 a 2,2 0 0 0 -2,2 v 2 a 2,2 0 0 0 2,2 h 2 v 2 h -4 v 2 h 2 z"
     id="path3811"
     inkscape:connector-curvature="0" />
  <path
     d="m 32,62 a 9,9 0 1 0 -9,-9 9.01,9.01 0 0 0 9,9 z m 0,-16 a 7,7 0 1 1 -7,7 7.009,7.009 0 0 1 7,-7 z"
     id="path3813"
     inkscape:connector-curvature="0" />
  <path
     d="m 33,5 h -2 v 1 a 2,2 0 0 0 -2,2 v 2 a 2,2 0 0 0 2,2 h 2 v 2 h -4 v 2 h 2 v 1 h 2 v -1 a 2,2 0 0 0 2,-2 V 12 A 2,2 0 0 0 33,10 H 31 V 8 h 4 V 6 h -2 z"
     id="path3815"
     inkscape:connector-curvature="0" />
  <path
     d="m 32,2 a 9,9 0 1 0 9,9 9.01,9.01 0 0 0 -9,-9 z m 0,16 a 7,7 0 1 1 7,-7 7.009,7.009 0 0 1 -7,7 z"
     id="path3817"
     inkscape:connector-curvature="0" />
  <path
     d="m 52,29.079539 h 2 v -1 a 2,2 0 0 0 2,-2 v -2 a 2,2 0 0 0 -2,-2 h -2 v -2 h 4 v -2 h -2 v -1 h -2 v 1 a 2,2 0 0 0 -2,2 v 2 a 2,2 0 0 0 2,2 h 2 v 2 h -4 v 2 h 2 z"
     id="path3819"
     inkscape:connector-curvature="0" />
  <path
     d="m 53,32.079539 a 9,9 0 1 0 -9,-9 9.01,9.01 0 0 0 9,9 z m 0,-16 a 7,7 0 1 1 -7,7 7.009,7.009 0 0 1 7,-7 z"
     id="path3821"
     inkscape:connector-curvature="0" />
  <path
     d="m 36,28.895137 h 3 a 1,1 0 0 0 0.65,-1.759 l -7,-6 a 1,1 0 0 0 -1.3,0 l -7,6 a 1,1 0 0 0 0.65,1.759 h 3 v 7 a 1,1 0 0 0 1,1 h 6 a 1,1 0 0 0 1,-1 z m -1,-2 a 1,1 0 0 0 -1,1 v 7 h -4 v -7 a 1,1 0 0 0 -1,-1 h -1.3 l 4.3,-3.683 4.3,3.683 z"
     id="path3823"
     inkscape:connector-curvature="0" />
  <path
     d="m 42,34.217349 h -2 v -2 h 2 z"
     id="path3825"
     inkscape:connector-curvature="0" />
  <path
     d="m 46,34.217349 h -2 v -2 h 2 z"
     id="path3827"
     inkscape:connector-curvature="0" />
  <path
     d="m 44,32.217349 h -2 v -2 h 2 z"
     id="path3829"
     inkscape:connector-curvature="0" />
  <path
     d="m 44,36.217349 h -2 v -2 h 2 z"
     id="path3831"
     inkscape:connector-curvature="0" />
  <path
     d="m 24,34.217349 h -2 v -2 h 2 z"
     id="path3833"
     inkscape:connector-curvature="0" />
  <path
     d="m 20,34.217349 h -2 v -2 h 2 z"
     id="path3835"
     inkscape:connector-curvature="0" />
  <path
     d="m 22,32.217349 h -2 v -2 h 2 z"
     id="path3837"
     inkscape:connector-curvature="0" />
  <path
     d="m 22,36.217349 h -2 v -2 h 2 z"
     id="path3839"
     inkscape:connector-curvature="0" />
  <path
     d="m 53.65,34.428939 a 1,1 0 0 0 -1.3,0 l -7,6 a 1,1 0 0 0 0.65,1.759 h 3 v 7 a 1,1 0 0 0 1,1 h 6 a 1,1 0 0 0 1,-1 v -7 h 3 a 1,1 0 0 0 0.65,-1.759 z m 2.35,5.759 a 1,1 0 0 0 -1,1 v 7 h -4 v -7 a 1,1 0 0 0 -1,-1 h -1.3 l 4.3,-3.683 4.3,3.683 z"
     id="path3841"
     inkscape:connector-curvature="0" />
  <path
     d="m 11.65,34.428939 a 1,1 0 0 0 -1.3,0 l -7.0000001,6 a 1,1 0 0 0 0.65,1.759 h 3 v 7 a 1,1 0 0 0 1,1 H 14 a 1,1 0 0 0 1,-1 v -7 h 3 a 1,1 0 0 0 0.65,-1.759 z m 2.35,5.759 a 1,1 0 0 0 -1,1 v 7 H 8.9999999 v -7 a 1,1 0 0 0 -1,-1 h -1.3 L 11,36.504939 l 4.3,3.683 z"
     id="path3843"
     inkscape:connector-curvature="0" />
  <path
     d="m 10,29.079539 h 2 v -1 a 2,2 0 0 0 2,-2 v -2 a 2,2 0 0 0 -2,-2 h -2 v -2 h 4 v -2 h -2 v -1 h -2 v 1 a 2,2 0 0 0 -2,2 v 2 a 2,2 0 0 0 2,2 h 2 v 2 H 8 v 2 h 2 z"
     id="path3845"
     inkscape:connector-curvature="0" />
  <path
     d="m 11,32.079539 a 9,9 0 1 0 -9,-9 9.01,9.01 0 0 0 9,9 z m 0,-16 a 7,7 0 1 1 -7,7 7.009,7.009 0 0 1 7,-7 z"
     id="path3847"
     inkscape:connector-curvature="0" />
  <path
     d="M 15,62.0401 H 7 v -2 h 8 z"
     id="path3849"
     inkscape:connector-curvature="0" />
  <path
     d="m 36,41.80704 h -8 v -2 h 8 z"
     id="path3851"
     inkscape:connector-curvature="0" />
  <path
     d="m 57,62.0401 h -8 v -2 h 8 z"
     id="path3853"
     inkscape:connector-curvature="0" />
  <path
     d="M 15,58.0401 H 7 v -2 h 8 z"
     id="path3855"
     inkscape:connector-curvature="0" />
  <path
     d="m 57,58.0401 h -8 v -2 h 8 z"
     id="path3857"
     inkscape:connector-curvature="0" />
  <path
     d="M 15,54.0401 H 7 v -2 h 8 z"
     id="path3859"
     inkscape:connector-curvature="0" />
  <path
     d="m 57,54.0401 h -8 v -2 h 8 z"
     id="path3861"
     inkscape:connector-curvature="0" />
</svg>
